<?xml version="1.0" encoding="UTF-8"?>
<svg version="1.1" xmlns="http://www.w3.org/2000/svg" width="1024" height="1024">
<path d="M0 0 C337.92 0 675.84 0 1024 0 C1024 337.92 1024 675.84 1024 1024 C686.08 1024 348.16 1024 0 1024 C0 686.08 0 348.16 0 0 Z " fill="#103563" transform="translate(0,0)"/>
<path d="M0 0 C1.35106087 0.0001133 1.35106087 0.0001133 2.72941589 0.00022888 C3.69825211 0.00539017 4.66708832 0.01055145 5.6652832 0.01586914 C7.15714897 0.01799156 7.15714897 0.01799156 8.67915344 0.02015686 C11.85815428 0.02575779 15.03708488 0.03831043 18.21606445 0.05102539 C20.37036031 0.05604027 22.52465727 0.0606032 24.67895508 0.06469727 C29.9621822 0.07572751 35.24536831 0.09246653 40.52856445 0.11352539 C40.65336182 1.20544189 40.77815918 2.2973584 40.90673828 3.42236328 C41.0785895 4.8728345 41.25072362 6.32327223 41.4230957 7.77368164 C41.54497253 8.85002869 41.54497253 8.85002869 41.66931152 9.94812012 C43.26215438 23.17893117 49.91248765 32.67148782 59.9387207 41.25805664 C70.23101208 48.63187022 81.39246735 51.42221683 93.81143188 51.38095093 C94.82111035 51.38548204 95.83078881 51.39001315 96.87106359 51.39468157 C100.24083099 51.40730121 103.61043626 51.40570675 106.98022461 51.40405273 C109.40201016 51.41003958 111.82379381 51.41684549 114.24557495 51.42440796 C120.13403811 51.44022877 126.02246351 51.44651579 131.91094358 51.44763272 C136.70182841 51.44858524 141.49270011 51.45270575 146.28358078 51.45903397 C159.88911003 51.4766375 173.4946078 51.48587449 187.10014851 51.48437302 C187.83272206 51.48429311 188.56529561 51.48421319 189.32006836 51.48413086 C190.05354446 51.4840491 190.78702057 51.48396734 191.54272322 51.4838831 C203.41828693 51.48307094 215.29372358 51.50219319 227.16925056 51.53040759 C239.38501451 51.55919947 251.60071662 51.57294436 263.81651533 51.57122004 C270.66582379 51.5705582 277.51499914 51.57595916 284.36427689 51.59757614 C290.81086351 51.61779285 297.25724237 51.61705003 303.70384598 51.60254288 C306.06198539 51.60045948 308.42014255 51.60512745 310.77825165 51.61726379 C330.06261519 51.71003752 346.76318157 50.06613346 361.84106445 36.55102539 C370.11963132 27.6675528 373.78312442 16.16269859 375.06762695 4.35180664 C375.19838623 3.15551636 375.19838623 3.15551636 375.33178711 1.93505859 C375.39672363 1.33395264 375.46166016 0.73284668 375.52856445 0.11352539 C381.68495053 0.03920972 387.84107381 -0.01515545 393.99780273 -0.05126953 C396.09094798 -0.0663293 398.18406181 -0.08678132 400.27709961 -0.11279297 C403.29068773 -0.14929962 406.30385757 -0.16622934 409.31762695 -0.17944336 C410.24910553 -0.19492722 411.18058411 -0.21041107 412.14028931 -0.22636414 C417.34735469 -0.22770421 421.08103931 0.0924283 425.52856445 3.11352539 C428.99618284 6.62138671 428.90430362 9.55546742 428.90608788 14.36968899 C428.9104482 15.10556056 428.91480852 15.84143214 428.91930097 16.59960285 C428.93029725 19.0789923 428.9198151 21.55783028 428.90951538 24.03721619 C428.91297023 25.82727121 428.91773362 27.61732411 428.92369711 29.40737253 C428.9362607 34.33702265 428.93001243 39.26649931 428.92073846 44.19615018 C428.91397013 49.50843907 428.92441819 54.82069746 428.93267822 60.13298035 C428.94604176 70.54425427 428.94312608 80.95546343 428.9344403 91.36673992 C428.92767409 99.82627627 428.92674242 108.28579444 428.93001175 116.74533272 C428.93047145 117.94785392 428.93093115 119.15037513 428.93140478 120.38933637 C428.93236392 122.83199958 428.93333656 125.27466279 428.93432255 127.71732599 C428.94288422 150.64080203 428.93303033 173.56424213 428.91692145 196.48771227 C428.90351928 216.16890953 428.90584404 235.8500537 428.91967773 255.53125 C428.93572278 278.36932947 428.94205837 301.2073774 428.93284094 324.04546171 C428.93188527 326.47960857 428.93094215 328.91375543 428.93001175 331.3479023 C428.92954892 332.54564264 428.9290861 333.74338299 428.92860924 334.97741849 C428.926016 343.42898856 428.93039759 351.88053866 428.93745041 360.33210564 C428.94585374 370.62868283 428.94360994 380.92519138 428.92760818 391.22176068 C428.91970948 396.47801297 428.91666104 401.73415072 428.92655563 406.99040222 C428.93547006 411.79860018 428.93062351 416.60657702 428.91462298 421.41475482 C428.91126133 423.15764451 428.91300014 424.90055273 428.92025034 426.64343058 C428.92932887 429.00639559 428.92006151 431.36859603 428.90608788 433.73152065 C428.90535729 435.70300379 428.90535729 435.70300379 428.90461195 437.71431488 C428.40222862 442.2555144 426.94345924 444.87549245 423.52856445 447.86352539 C419.84301522 450.16699366 416.79350746 450.24175979 412.54760742 450.25537109 C411.31557587 450.26240555 410.08354431 450.26944 408.81417847 450.27668762 C408.15580868 450.27850351 407.49743889 450.2803194 406.8191185 450.28219032 C404.74960069 450.28938012 402.68031667 450.30506785 400.61087036 450.3235321 C394.72702361 450.375864 388.84330267 450.42390093 382.95922852 450.43945312 C379.35691614 450.44959713 375.75519007 450.47908587 372.1531105 450.52077293 C370.78737979 450.53300181 369.42156594 450.53821916 368.05578232 450.5359745 C359.41870889 450.52527852 351.65696861 450.78855157 344.802948 456.56880188 C336.75754924 465.034194 335.95944524 475.00903321 336.05981445 486.18774414 C336.05497543 487.52432763 336.04781003 488.8609045 336.03845215 490.19746399 C336.01333391 494.39875299 336.01857961 498.59969213 336.02856445 502.80102539 C336.04014261 507.68617103 336.03880029 512.57060998 336.00450134 517.4556675 C335.99746594 519.39596497 336.01427914 521.33630226 336.03161621 523.27653503 C335.99247343 530.10975947 335.71982208 534.60599309 331.52856445 540.11352539 C326.76723343 544.63068559 322.38055189 546.36143261 315.85443974 546.3707943 C314.71608112 546.37724319 313.57772251 546.38369208 312.40486819 546.39033639 C311.15896692 546.38723919 309.91306564 546.38414199 308.62940979 546.38095093 C307.28880795 546.38468806 305.94820828 546.38928984 304.60761207 546.39468157 C300.924956 546.40691894 297.24239073 546.40665026 293.55971897 546.40429282 C289.58758892 546.40388485 285.61548805 546.41492184 281.64337158 546.42440796 C273.86218594 546.44102227 266.08103061 546.44651767 258.29982872 546.44763272 C251.97610047 546.44858285 245.65238223 546.45269144 239.32865715 546.45903397 C221.40389006 546.47664648 203.47914693 546.48587266 185.55437113 546.48437302 C184.58800092 546.48429311 183.62163071 546.48421319 182.62597656 546.48413086 C181.65842813 546.4840491 180.6908797 546.48396734 179.69401162 546.4838831 C164.00731521 546.48306989 148.32071474 546.50221634 132.63404609 546.53040759 C116.53117526 546.55911879 100.42835126 546.5729489 84.32545418 546.57122004 C75.2831927 546.57055559 66.24103185 546.57607192 57.19879341 546.59757614 C49.50142577 546.61576461 41.80420438 546.62015445 34.10682458 546.60655729 C30.17895227 546.60001617 26.25136074 546.59995145 22.32351494 546.61726379 C18.7278564 546.63294919 15.13270233 546.63017798 11.53705644 546.61269553 C9.62002406 546.60815638 7.70297631 546.62331842 5.78600413 546.63917482 C-0.58242869 546.58783742 -4.67118546 546.48565912 -9.47143555 542.11352539 C-13.98400802 537.13413507 -13.61831051 531.86914777 -13.61124325 525.42615032 C-13.61419467 524.53554756 -13.61714609 523.6449448 -13.62018695 522.72735408 C-13.62889813 519.72176615 -13.63046043 516.71621661 -13.63206482 513.71061707 C-13.63679439 511.54250777 -13.64194511 509.37439936 -13.64748245 507.20629197 C-13.66140801 501.23161786 -13.66897761 495.25694986 -13.67545545 489.28226364 C-13.681821 484.1619778 -13.69189177 479.04170202 -13.70201611 473.92142244 C-13.73535569 457.05256168 -13.75690275 440.18369488 -13.77521595 423.31481192 C-13.77998385 418.92449508 -13.78499248 414.53417855 -13.79002118 410.14386201 C-13.82106338 382.896591 -13.84768311 355.64931755 -13.86443996 328.40203381 C-13.86837725 322.08963707 -13.87238908 315.77724039 -13.87646484 309.46484375 C-13.87696651 308.68060335 -13.87746818 307.89636295 -13.87798505 307.0883577 C-13.89440917 281.65201879 -13.9328754 256.21577598 -13.98375195 230.77948437 C-14.03595156 204.63411473 -14.06875114 178.48879629 -14.0760175 152.34337348 C-14.07704612 148.65213145 -14.07828244 144.96088952 -14.07963753 141.2696476 C-14.07989557 140.54316841 -14.0801536 139.81668922 -14.08041946 139.06819551 C-14.08511758 127.3687197 -14.11006507 115.66937044 -14.14238896 103.96994202 C-14.17439375 92.21481312 -14.18391179 80.4598394 -14.17195701 68.70467206 C-14.16611405 62.3341615 -14.17010977 55.96404852 -14.20012665 49.59359741 C-14.2273673 43.76495273 -14.22708216 37.93699041 -14.2046162 32.10833136 C-14.2013776 29.99662104 -14.20835209 27.88486602 -14.22641342 25.77323046 C-14.24944467 22.90745778 -14.23564317 20.04414173 -14.21251583 17.17842388 C-14.22799207 16.35407066 -14.2434683 15.52971745 -14.25941351 14.68038383 C-14.16210839 9.23664758 -12.74646753 6.41268322 -9.05085069 2.4237438 C-6.22011603 0.07548173 -3.51851527 -0.00985579 0 0 Z " fill="#7BB5EC" transform="translate(304.471435546875,270.886474609375)"/>
<path d="M0 0 C1.20079193 0.00007553 2.40158386 0.00015106 3.63876343 0.00022888 C4.92022247 0.00539017 6.20168152 0.01055145 7.52197266 0.01586914 C8.85861152 0.01773645 10.19525107 0.01915887 11.53189087 0.02015686 C15.03352785 0.02395744 18.53512271 0.03376648 22.03674316 0.04486084 C25.61644918 0.05512807 29.19616227 0.05972078 32.77587891 0.06469727 C39.78763473 0.07485923 46.79927523 0.09443711 53.81103516 0.11352539 C53.81103516 10.34352539 53.81103516 20.57352539 53.81103516 31.11352539 C49.74017578 31.13930664 45.66931641 31.16508789 41.47509766 31.19165039 C38.20419345 31.22338434 34.93338352 31.25903774 31.66255188 31.2973175 C28.22358309 31.33650064 24.78486689 31.36897317 21.34570312 31.38452148 C17.38850825 31.40273377 13.43200578 31.45275913 9.47509766 31.50415039 C8.25803131 31.50537903 7.04096497 31.50660767 5.78701782 31.50787354 C-4.86247298 31.68883235 -14.51241742 34.33834994 -22.18896484 42.11352539 C-27.49949866 49.52976107 -29.33832455 55.14108913 -29.32318592 64.23169804 C-29.32553815 65.18102962 -29.32789038 66.13036119 -29.33031389 67.1084604 C-29.33702129 70.3198819 -29.33654514 73.53126311 -29.33613586 76.74269104 C-29.33943341 79.05629171 -29.34315874 81.36989181 -29.34727734 83.68349117 C-29.35626327 89.3947481 -29.36052698 95.10599518 -29.36279631 100.81725841 C-29.36575595 107.6558507 -29.37445199 114.49443268 -29.38321059 121.33301956 C-29.40406641 137.86428329 -29.41452679 154.39554882 -29.4233402 170.92682264 C-29.42754531 178.74607053 -29.4327675 186.56531765 -29.43802473 194.3845649 C-29.45591639 221.14600833 -29.47091258 247.90745197 -29.47834492 274.66890049 C-29.47881968 276.34938184 -29.47929556 278.0298632 -29.47977258 279.71034455 C-29.48000896 280.54372084 -29.48024533 281.37709713 -29.48048887 282.23572724 C-29.48169008 286.45809551 -29.48290553 290.68046377 -29.48413086 294.90283203 C-29.48437101 295.74077738 -29.48461116 296.57872272 -29.48485859 297.44206035 C-29.49275148 324.61015121 -29.51618236 351.77819842 -29.5486868 378.94627022 C-29.58298208 407.6635586 -29.60269581 436.38082144 -29.60598916 465.09813064 C-29.6064067 468.250514 -29.60688627 471.40289734 -29.60741234 474.55528069 C-29.60753553 475.33149752 -29.60765872 476.10771436 -29.60778565 476.90745292 C-29.61011812 489.40136347 -29.62578081 501.89522334 -29.64625418 514.38911582 C-29.66650688 526.94758437 -29.67199214 539.50599202 -29.66248355 552.06447387 C-29.65772557 558.86866889 -29.65989048 565.67268945 -29.679245 572.47686386 C-29.69680895 578.70526839 -29.69593376 584.93338738 -29.6803477 591.16179466 C-29.67796135 593.41557265 -29.68234811 595.66937008 -29.69417635 597.9231183 C-29.70926212 600.98724747 -29.69964504 604.05036057 -29.68394947 607.11446476 C-29.69928278 608.42623645 -29.69928278 608.42623645 -29.71492586 609.76450858 C-29.61085526 619.07681832 -26.35591791 626.69531535 -19.97802734 633.42602539 C-13.29430306 639.73032428 -6.28477336 641.42325437 2.71910572 641.3707943 C3.87397706 641.37605341 3.87397706 641.37605341 5.05217913 641.38141876 C7.6292444 641.39071457 10.20608279 641.38581417 12.78315735 641.38095093 C14.65060824 641.3846881 16.51805757 641.38928989 18.38550442 641.39468157 C23.51531372 641.40691861 28.64505782 641.40665027 33.77487838 641.40429282 C39.30806921 641.40388484 44.84123909 641.41492202 50.37442017 641.42440796 C61.21406992 641.44102253 72.05369792 641.4465177 82.89335934 641.44763272 C91.70365595 641.44858292 100.51394539 641.45269184 109.32423973 641.45903397 C130.23596926 641.47378112 151.1476949 641.48608358 172.05943012 641.48503685 C173.06236222 641.48499011 173.06236222 641.48499011 174.08555558 641.48494243 C177.47433699 641.48477622 180.86311841 641.48457814 184.25189982 641.48437302 C185.26141979 641.48431318 185.26141979 641.48431318 186.29133411 641.48425214 C187.65233064 641.48417126 189.01332718 641.48408767 190.37432371 641.48400136 C211.54913715 641.48277585 232.72388653 641.49778962 253.89868164 641.52514648 C277.69342944 641.5558756 301.48814138 641.57305316 325.28291386 641.57122004 C337.87995163 641.57055582 350.47691715 641.57606212 363.07393837 641.59757614 C373.79850073 641.61577482 384.52295809 641.62014598 395.24752919 641.60655729 C400.71913517 641.60002122 406.19053965 641.59993372 411.66212654 641.61726379 C416.67282249 641.63297088 421.68315674 641.63015487 426.69384374 641.61269553 C428.5047038 641.60962046 430.31559069 641.61327708 432.1264191 641.62441568 C445.00638501 641.69838298 455.08151055 640.65254237 464.83056641 631.47290039 C471.06280299 624.04830296 472.96136507 615.50370072 472.94246292 606.08347034 C472.94451555 605.14366981 472.94656819 604.20386928 472.94868302 603.23558995 C472.95438002 600.05660863 472.95289246 596.87767025 472.95147705 593.69868469 C472.95405914 591.40840755 472.95707186 589.11813087 472.96048045 586.82785481 C472.96857207 580.51080049 472.97034122 574.19375751 472.97107792 567.87669861 C472.97225294 561.77088204 472.97905072 555.66507035 472.98515633 549.55925714 C473.00122803 533.19618031 473.00712096 516.8331044 473.01190508 500.47002109 C473.01423988 492.73116048 473.01784241 484.99230061 473.02160046 477.25344057 C473.03443706 450.76943943 473.04515611 424.2854387 473.04860306 397.80143452 C473.04882469 396.13843048 473.04904648 394.47542644 473.04926841 392.81242241 C473.04948905 391.14536876 473.04970953 389.47831512 473.04992986 387.81126148 C473.05037241 384.46678499 473.05081953 381.12230851 473.05126953 377.77783203 C473.05137892 376.94859423 473.05148831 376.11935642 473.05160102 375.26499019 C473.05523205 348.37393911 473.07115327 321.48291498 473.0944599 294.59187421 C473.11904824 266.17009646 473.13277544 237.74833412 473.13397098 209.32654542 C473.13414243 206.20733813 473.13435786 203.08813085 473.13460541 199.96892357 C473.13468906 198.8168444 473.13468906 198.8168444 473.1347744 197.6414909 C473.13592573 185.27365326 473.1469547 172.90584325 473.16149246 160.53801495 C473.17584904 148.10953112 473.17909921 135.68108275 473.17105249 123.2525929 C473.16698521 116.51753344 473.16811907 109.78257264 473.18210983 103.0475235 C473.19479521 96.88464487 473.19369848 90.72192977 473.18151912 84.55905154 C473.1795528 82.3268452 473.1826834 80.09462749 473.19136348 77.86243717 C473.20240232 74.8323538 473.19500538 71.80285302 473.18297195 68.77278614 C473.19056715 67.90264373 473.19816234 67.03250131 473.20598769 66.13599095 C473.12621259 56.85461212 469.69247953 49.26663342 463.81103516 42.11352539 C456.45394245 35.23494278 448.2334312 32.06974786 438.19458008 31.90820312 C437.09381638 31.8882579 435.99305267 31.86831268 434.8589325 31.84776306 C433.68168106 31.83105057 432.50442963 31.81433807 431.29150391 31.79711914 C430.07779617 31.77633804 428.86408844 31.75555695 427.61360168 31.73414612 C423.74196965 31.66883623 419.8702706 31.60985176 415.99853516 31.55102539 C413.37157514 31.50782254 410.74462187 31.46420768 408.11767578 31.42016602 C401.68219655 31.3123997 395.24666542 31.21318754 388.81103516 31.11352539 C388.81103516 20.88352539 388.81103516 10.65352539 388.81103516 0.11352539 C396.17675542 0.07142219 403.54203209 0.03137038 410.90776825 0.01002502 C414.33887455 -0.00047462 417.76987976 -0.0144723 421.20092773 -0.03735352 C425.15037762 -0.06352285 429.09978824 -0.07299902 433.04931641 -0.08178711 C434.867174 -0.09727097 434.867174 -0.09727097 436.72175598 -0.11306763 C455.26722041 -0.11548195 471.68649454 5.33200045 485.43603516 18.17602539 C497.30233333 30.68144196 503.97118377 45.29352444 503.94804955 62.55753136 C503.95070137 63.51780288 503.9533532 64.47807441 503.95608538 65.46744508 C503.96378062 68.70408573 503.96433765 71.94068845 503.9649353 75.17733765 C503.96894978 77.51384988 503.97338798 79.85036142 503.97821486 82.18687212 C503.98893123 87.94719918 503.9949368 93.70751784 503.99892374 99.46785318 C504.00393599 106.36703061 504.01466406 113.26619624 504.02540547 120.1653667 C504.05102833 136.84250712 504.0660703 153.51965212 504.07891594 170.19680657 C504.08317152 175.72151266 504.08773727 181.24621842 504.09249926 186.77092409 C504.11776143 216.15428337 504.13980669 245.53764322 504.1522274 274.92101097 C504.15514867 281.72818377 504.1581162 288.53535654 504.16113281 295.3425293 C504.16150372 296.18822413 504.16187463 297.03391896 504.16225678 297.90524091 C504.1744085 325.3160382 504.20534657 352.72677124 504.24705434 380.13753836 C504.28986378 408.32381429 504.31647121 436.51005629 504.32170212 464.69636561 C504.32244253 468.67947027 504.32335321 472.66257487 504.32435989 476.64567947 C504.32455051 477.4295651 504.32474112 478.21345073 504.32493751 479.02109046 C504.32844765 491.62363775 504.34872966 504.22610442 504.37515653 516.82862213 C504.40133362 529.50344205 504.40901489 542.17816905 504.39805524 554.85301213 C504.39261371 561.71659884 504.39509091 568.57995224 504.42052078 575.44350052 C504.44302185 581.7319669 504.44226594 588.01999381 504.42331691 594.30846794 C504.42051818 596.57842833 504.42610818 598.84841859 504.44112985 601.118331 C504.56340552 620.80563381 501.46834401 638.34085669 487.51806641 653.46899414 C474.510496 666.00031483 458.97613602 673.28556782 440.84887505 673.24774647 C440.07310612 673.2500987 439.29733719 673.25245093 438.49806011 673.25487444 C435.90110746 673.26152621 433.30420529 673.26110738 430.70724487 673.26069641 C428.82543396 673.2639974 426.94362374 673.26772346 425.06181443 673.27183789 C419.89220755 673.28183894 414.72261229 673.28557162 409.55299711 673.2882272 C403.97680895 673.29213577 398.40062994 673.30171359 392.82444763 673.31044006 C379.36037313 673.33018682 365.89629789 673.34026752 352.43221253 673.34916785 C346.0901139 673.35355289 339.7480161 673.35891907 333.40591812 673.36415672 C312.32177085 673.38116572 291.23762393 673.39568517 270.15347099 673.40290546 C268.7906607 673.40338022 267.42785041 673.40385611 266.06504012 673.40433313 C265.05132188 673.40468769 265.05132188 673.40468769 264.01712449 673.40504942 C260.59328481 673.40625058 257.16944514 673.40746604 253.74560547 673.40869141 C253.06614243 673.40893156 252.38667939 673.40917171 251.68662656 673.40941913 C229.65892234 673.41731132 207.63127198 673.4407433 185.60359127 673.47324735 C162.30157664 673.5075689 138.99959797 673.52725755 115.69755375 673.53054971 C103.00037018 673.53271446 90.3032658 673.54145845 77.6061058 673.56701088 C66.79416619 673.5887194 55.98232503 673.59676741 45.17036609 673.5870441 C39.65585434 673.58250017 34.14154572 673.58439142 28.62706184 673.60380554 C23.57365689 673.62144253 18.52060317 673.62043494 13.46719445 673.60490825 C11.64416537 673.60253305 9.82111193 673.60685113 7.99812005 673.6187369 C-11.99404511 673.74095618 -29.54071502 668.43235431 -44.18896484 654.11352539 C-54.9633306 641.84783996 -61.69469133 627.46648338 -61.56928158 611.03307629 C-61.5739415 610.06474797 -61.57860142 609.09641966 -61.58340254 608.09874806 C-61.59532198 604.86469845 -61.5859687 601.63107131 -61.5766449 598.39701843 C-61.58081914 596.05063888 -61.58629715 593.70426135 -61.59296471 591.35788757 C-61.60591136 585.59259499 -61.60492849 579.82742282 -61.59800232 574.06212261 C-61.59047609 567.15310131 -61.6003672 560.24413219 -61.61070552 553.33511845 C-61.63036198 539.79819741 -61.63272176 526.26131468 -61.62751032 512.72438278 C-61.62295127 500.87604726 -61.62355465 489.02772689 -61.62935066 477.17939186 C-61.63010753 475.58941989 -61.63086351 473.99944792 -61.63161861 472.40947596 C-61.63276382 470.01345488 -61.6339137 467.6174338 -61.63507785 465.22141273 C-61.64578152 442.94780969 -61.65050952 420.67421169 -61.64260769 398.40060711 C-61.64231052 397.56114762 -61.64201334 396.72168813 -61.64170716 395.85679048 C-61.63925829 389.04001597 -61.63664667 382.22324152 -61.63402303 375.40646708 C-61.6239219 348.82027047 -61.63227399 322.23413702 -61.65551758 295.64794922 C-61.68159816 265.76853206 -61.69443591 235.88915293 -61.68732983 206.00972396 C-61.68661378 202.82285139 -61.68593939 199.63597881 -61.68528938 196.44910622 C-61.68511957 195.6644351 -61.68494976 194.87976398 -61.68477481 194.07131494 C-61.6824732 182.23381008 -61.69044225 170.39634055 -61.70358086 158.55884361 C-61.71849956 145.09363428 -61.71932534 131.62850769 -61.70150995 118.16330012 C-61.69279502 111.29389041 -61.69035329 104.42462467 -61.7061615 97.55522346 C-61.71998643 91.26401756 -61.71527313 84.97310528 -61.69592226 78.68191645 C-61.69215526 76.40878328 -61.6951043 74.13562671 -61.70553391 71.86251434 C-61.7958003 50.67898706 -58.26178808 34.52764505 -42.98583984 18.84399414 C-31.21499085 7.35262061 -16.6729049 -0.0351749 0 0 Z " fill="#4C8CCA" transform="translate(291.18896484375,207.886474609375)"/>
<path d="M0 0 C12.92860587 9.85036638 21.34473898 22.09317759 26.16796875 37.5625 C27.01355894 41.40590951 27.01355894 41.40590951 30.35546875 43.1875 C32.68830162 43.48116581 32.68830162 43.48116581 35.31079102 43.42700195 C36.8236544 43.4325988 36.8236544 43.4325988 38.36708069 43.43830872 C39.45766281 43.43417465 40.54824493 43.43004059 41.671875 43.42578125 C43.98633393 43.44121008 46.30078715 43.45751437 48.61523438 43.47460938 C52.25997501 43.49101499 55.90429801 43.50002666 59.54907227 43.49291992 C63.06965054 43.49028601 66.58896602 43.5185333 70.109375 43.55078125 C71.72399376 43.53547112 71.72399376 43.53547112 73.37123108 43.51985168 C80.64992399 43.61298726 86.31133646 44.99477184 92.35546875 49.1875 C98.26104026 55.31979355 100.59647392 61.43395781 100.63012695 69.98388672 C100.63779335 70.96078964 100.63779335 70.96078964 100.64561462 71.95742798 C100.65942789 74.09410998 100.65856001 76.23046636 100.65625 78.3671875 C100.66014181 79.86402504 100.66447748 81.36086149 100.66923523 82.85769653 C100.67667991 85.98964015 100.67641917 89.121471 100.67114258 92.25341797 C100.66535377 96.25013392 100.68227287 100.24638557 100.70548725 104.24302483 C100.72028114 107.33328919 100.72108858 110.42344322 100.71797752 113.51373672 C100.71848802 114.98640995 100.72367423 116.45908979 100.73378944 117.93172836 C100.78789162 126.9101235 100.48315703 134.01478477 95.73046875 141.875 C90.81332441 146.66274581 84.26121446 150.30679581 77.30735493 150.31892776 C76.48075062 150.32276891 75.65414631 150.32661005 74.80249339 150.3305676 C73.4405545 150.32926787 73.4405545 150.32926787 72.05110168 150.32794189 C70.6040207 150.33239858 70.6040207 150.33239858 69.12770575 150.3369453 C65.88045726 150.34564815 62.63324557 150.34714189 59.38598633 150.34863281 C57.06357748 150.3532599 54.7411694 150.35828442 52.41876221 150.36367798 C46.09835663 150.37681544 39.77796167 150.38324969 33.45754457 150.38768864 C29.51009811 150.39061751 25.56265457 150.39472199 21.61520958 150.39919281 C10.68370223 150.41130402 -0.24780259 150.42168499 -11.17931652 150.4250679 C-12.22887553 150.42539725 -12.22887553 150.42539725 -13.29963775 150.42573325 C-14.00101245 150.42595153 -14.70238715 150.42616981 -15.42501563 150.4263947 C-16.84625065 150.42683817 -18.26748568 150.42728473 -19.6887207 150.42773438 C-20.74619177 150.42806652 -20.74619177 150.42806652 -21.82502589 150.42840537 C-33.24257915 150.4323515 -44.66006852 150.4497994 -56.0775971 150.4730939 C-67.80274192 150.49682263 -79.52785471 150.50927048 -91.25302392 150.51043582 C-97.83503769 150.51148445 -104.41696138 150.51740468 -110.99895287 150.53525543 C-117.19181913 150.55172352 -123.38452749 150.55389764 -129.57740784 150.54511642 C-131.84937271 150.54434535 -134.12134603 150.54869801 -136.39328957 150.55857468 C-139.49746319 150.57127678 -142.60107616 150.56542642 -145.70524597 150.55499268 C-146.60205163 150.56304908 -147.49885728 150.57110548 -148.42283887 150.57940602 C-155.75984339 150.52182237 -162.19943945 149.01579413 -167.89453125 144.0625 C-168.5184375 143.54429687 -169.14234375 143.02609375 -169.78515625 142.4921875 C-176.28018551 134.44162602 -176.22701306 125.90866108 -176.140625 115.93359375 C-176.1407803 114.46346465 -176.14227448 112.99333514 -176.14503479 111.52320862 C-176.14641232 108.45612276 -176.13396899 105.3895082 -176.11108398 102.32250977 C-176.08267563 98.40989482 -176.08545197 94.49806016 -176.0981741 90.58538723 C-176.10515946 87.55428002 -176.09731002 84.52335023 -176.08491707 81.4922657 C-176.08043203 80.05031072 -176.08003972 78.6083365 -176.08398247 77.16637993 C-176.09777772 67.68557941 -176.04401625 59.38501748 -169.45703125 51.9375 C-168.92722656 51.31359375 -168.39742188 50.6896875 -167.8515625 50.046875 C-160.7420264 44.05724813 -154.33886867 43.61743238 -145.375 43.68359375 C-144.21704422 43.67417252 -143.05908844 43.66475128 -141.86604309 43.65504456 C-138.18785661 43.62648579 -134.5103195 43.62331459 -130.83203125 43.625 C-127.13598592 43.62139691 -123.44040797 43.61195023 -119.74446106 43.58424377 C-117.44967103 43.56739957 -115.15472614 43.56462293 -112.85990906 43.57725525 C-111.82485733 43.57037186 -110.7898056 43.56348846 -109.72338867 43.55639648 C-108.81264084 43.55735825 -107.90189301 43.55832001 -106.96354675 43.55931091 C-104.15622697 43.10920951 -103.33281101 42.43826192 -101.64453125 40.1875 C-100.64890422 37.69271044 -99.75063836 35.22842353 -98.89453125 32.6875 C-92.51565164 14.84550475 -80.72779533 1.46221905 -63.52734375 -6.6796875 C-41.9150141 -15.17233736 -19.29036809 -13.22116809 0 0 Z " fill="#4C8CCA" transform="translate(549.64453125,142.8125)"/>
<path d="M0 0 C1.53567526 -0.00576172 1.53567526 -0.00576172 3.10237426 -0.01163983 C4.80238167 -0.01034011 4.80238167 -0.01034011 6.53673267 -0.00901413 C8.3327341 -0.01347081 8.3327341 -0.01347081 10.16501838 -0.01801753 C13.49906388 -0.02521342 16.83305787 -0.02787806 20.16710746 -0.028615 C23.75892936 -0.03046261 27.35074001 -0.03800856 30.94255543 -0.04475021 C38.80215893 -0.05834719 46.66175734 -0.06436063 54.52137065 -0.06876087 C59.42779667 -0.07152149 64.33422072 -0.07575856 69.24064541 -0.08026505 C82.82111169 -0.09246045 96.40157639 -0.1027586 109.98204803 -0.10614014 C110.85169457 -0.1063597 111.7213411 -0.10657927 112.61734055 -0.10680549 C113.48909085 -0.10702377 114.36084114 -0.10724204 115.25900811 -0.10746694 C117.02555859 -0.1079104 118.79210907 -0.10835697 120.55865955 -0.10880661 C121.8730699 -0.10913875 121.8730699 -0.10913875 123.214034 -0.10947761 C137.40969372 -0.11342477 151.60530208 -0.13087507 165.80094197 -0.15416613 C180.37029102 -0.17787761 194.9396143 -0.19034193 209.50898296 -0.19150805 C217.69114019 -0.19242503 225.87323055 -0.19818287 234.05536938 -0.21632767 C241.02373282 -0.23172605 247.99200872 -0.23685076 254.96038594 -0.22858956 C258.51567582 -0.22468185 262.07078942 -0.22561835 265.62605762 -0.23964691 C269.48153134 -0.25472079 273.33675674 -0.24652266 277.19225025 -0.23606491 C278.87552726 -0.24814952 278.87552726 -0.24814952 280.59280986 -0.26047826 C288.18755805 -0.21220749 293.13073123 0.59956491 299.11945057 5.56892776 C301.99665581 9.40520142 301.93287477 13.56726659 301.73663807 18.21345901 C300.88666097 22.68481744 298.8433153 25.47872534 295.18195057 28.13142776 C291.64575706 29.77859479 288.86890026 30.38254236 284.97914028 30.38869667 C283.42928021 30.39837001 283.42928021 30.39837001 281.84810984 30.40823877 C280.15537379 30.40359296 280.15537379 30.40359296 278.42844105 30.3988533 C277.22445994 30.40338441 276.02047883 30.40791553 274.78001344 30.41258395 C271.44128882 30.42305578 268.10277958 30.42455354 264.76405382 30.4221952 C261.16204981 30.42178703 257.56007792 30.43282613 253.95808887 30.44231033 C246.9024818 30.45892089 239.84690814 30.46441989 232.79128315 30.46553509 C227.05633126 30.46648548 221.32139039 30.47059531 215.58644199 30.47693634 C199.3268659 30.49454841 183.06731621 30.50377519 166.80773051 30.50227539 C165.9312329 30.50219548 165.05473528 30.50211557 164.15167713 30.50203323 C162.83532562 30.50191059 162.83532562 30.50191059 161.49238114 30.50178547 C147.26779101 30.50097244 133.04330674 30.5201145 118.81874724 30.54830997 C104.21313731 30.57703234 89.60757902 30.59085064 75.00194013 30.58912241 C66.80192525 30.58845832 58.60202135 30.59395922 50.4020319 30.61547852 C43.42090725 30.63368176 36.43994391 30.63804472 29.45880581 30.62445967 C25.89737229 30.61792578 22.33624832 30.61782759 18.77484417 30.63516617 C14.91289491 30.6537745 11.05139859 30.64135333 7.18942738 30.62590408 C6.06539812 30.63619121 4.94136886 30.64647834 3.78327811 30.65707719 C-2.6389917 30.60019521 -6.59396629 29.96195214 -11.81804943 26.13142776 C-14.67555504 22.65801869 -15.70995766 18.9150931 -16.31804943 14.50642776 C-15.53444795 9.21711779 -13.14376828 6.29932294 -9.19304943 2.81892776 C-5.8083791 0.41403043 -4.10386766 0.0057571 0 0 Z " fill="#0F3462" transform="translate(368.81804943084717,473.8685722351074)"/>
<path d="M0 0 C1.02079881 -0.00384115 2.04159762 -0.00768229 3.09332973 -0.01163983 C4.77292578 -0.01034011 4.77292578 -0.01034011 6.48645306 -0.00901413 C7.67732908 -0.01198525 8.86820511 -0.01495637 10.09516829 -0.01801753 C13.40189209 -0.02519757 16.70856394 -0.02787683 20.01529181 -0.028615 C23.58117513 -0.03046638 27.14704719 -0.03801411 30.712924 -0.04475021 C38.51042757 -0.05833019 46.307926 -0.06435762 54.10543942 -0.06876087 C58.97401905 -0.07152364 63.84259668 -0.07576103 68.71117496 -0.08026505 C82.19049772 -0.09245685 95.66981888 -0.10275661 109.14914703 -0.10614014 C110.44310863 -0.10646949 110.44310863 -0.10646949 111.76321087 -0.10680549 C112.62791507 -0.10702377 113.49261927 -0.10724204 114.38352662 -0.10746694 C116.1357462 -0.1079104 117.88796578 -0.10835697 119.64018536 -0.10880661 C120.50934669 -0.10902804 121.37850802 -0.10924947 122.27400758 -0.10947761 C136.35960937 -0.11342619 150.44515944 -0.13088243 164.53074125 -0.15416613 C178.99167244 -0.17787741 193.45257768 -0.19034187 207.91352862 -0.19150805 C216.03305801 -0.1924249 224.15252 -0.19817957 232.27203083 -0.21632767 C239.18544928 -0.23172557 246.0987795 -0.23685093 253.01221184 -0.22858956 C256.53916242 -0.22468205 260.0659353 -0.22561744 263.59286404 -0.23964691 C267.4175779 -0.25472175 271.2420415 -0.24652234 275.06677532 -0.23606491 C276.17981386 -0.24412132 277.29285239 -0.25217772 278.43961936 -0.26047826 C286.01947457 -0.21191808 290.97969434 0.58896366 296.90458965 5.63142776 C299.6932442 9.30361642 299.54632729 13.11345824 299.3225584 17.57674026 C298.67526563 22.22871248 296.88130716 24.30863201 293.46708965 27.38142776 C289.89959528 29.87867382 287.26635378 30.25690412 283.02319908 30.26285553 C281.99680783 30.26669667 280.97041658 30.27053782 279.91292256 30.27449536 C278.781815 30.27362888 277.65070745 30.2727624 276.48532391 30.27186966 C275.28642963 30.27484078 274.08753536 30.2778119 272.85231096 30.28087306 C269.51859418 30.28806111 266.18492893 30.29073298 262.85120809 30.29147053 C259.25805957 30.29331999 255.66492226 30.30086676 252.0717802 30.30760574 C244.21230306 30.3211939 236.35283101 30.32721449 228.49334407 30.3316164 C223.58708796 30.33437793 218.68083382 30.33861511 213.77457905 30.34312057 C200.19407017 30.35531372 186.61356287 30.36561304 173.03304863 30.36899567 C172.16368566 30.36921523 171.29432268 30.3694348 170.39861538 30.36966102 C169.0914289 30.36998843 169.0914289 30.36998843 167.75783461 30.37032247 C165.99189293 30.37076593 164.22595125 30.3712125 162.46000957 30.37166214 C161.5840392 30.37188357 160.70806882 30.372105 159.80555389 30.37233314 C145.6092822 30.37628179 131.41306182 30.39373766 117.21680995 30.41702166 C102.64630406 30.44072687 88.07582393 30.45319713 73.50529844 30.45436358 C65.32262905 30.4552808 57.14002652 30.46104473 48.95737553 30.4791832 C41.99010567 30.49457297 35.02292333 30.4997113 28.05563971 30.49144509 C24.50046679 30.48753462 20.94547017 30.48848739 17.39031887 30.50250244 C13.53673828 30.51755512 9.68340668 30.5093866 5.82980633 30.49892044 C4.70539094 30.50697685 3.58097555 30.51503325 2.42248696 30.52333379 C-3.93614869 30.48281761 -8.763433 30.11356387 -13.6774416 25.63142776 C-17.51648539 20.70101701 -18.56321026 17.38896671 -18.03291035 11.13142776 C-15.58495794 6.50751766 -12.35472088 2.20867909 -7.19121724 0.53417325 C-4.74989082 0.07861561 -2.48428024 0.00351208 0 0 Z " fill="#103562" transform="translate(371.03291034698486,390.8685722351074)"/>
<path d="M0 0 C1.13702922 -0.00679667 1.13702922 -0.00679667 2.29702872 -0.01373065 C4.83876195 -0.02639774 7.38028153 -0.02475279 9.92204285 -0.02310181 C11.74376705 -0.02908566 13.56548871 -0.03589087 15.38720703 -0.04345703 C20.33770905 -0.0611398 25.28814195 -0.0658134 30.23867249 -0.0670886 C34.37132171 -0.06898723 38.5039548 -0.07634442 42.63659781 -0.08343279 C52.38767893 -0.09972334 62.13872312 -0.10460117 71.88981628 -0.10317993 C81.94751734 -0.10197861 92.00500376 -0.12307706 102.0626505 -0.15466726 C110.69802352 -0.1808234 119.33332641 -0.19154749 127.96873873 -0.19026911 C133.12607437 -0.18975924 138.28321934 -0.19545612 143.44051552 -0.21662521 C148.29231613 -0.23599614 153.14374399 -0.23613986 157.99555779 -0.22159195 C159.77450225 -0.21950127 161.55346998 -0.22422021 163.33237457 -0.23631287 C165.76490736 -0.25177532 168.19615649 -0.24245155 170.62866211 -0.22705078 C171.32926012 -0.23733791 172.02985814 -0.24762503 172.75168639 -0.25822389 C178.13346352 -0.18315454 181.14086184 1.35288769 185.50480652 4.26742554 C188.43174815 7.41443797 189.42317075 10.60267717 189.94230652 14.82992554 C189.29813234 19.89129411 187.84124215 23.00132862 184.12980652 26.51742554 C179.14230154 29.84242885 174.95152427 30.56055494 169.03448486 30.52812195 C167.91961697 30.53386027 167.91961697 30.53386027 166.7822265 30.53971452 C164.29653304 30.55001743 161.81107175 30.54605756 159.32536316 30.54208374 C157.54127794 30.5464317 155.75719459 30.55161513 153.97311401 30.55757141 C149.13016544 30.57096325 144.28729489 30.5715399 139.44433141 30.56900811 C135.40101062 30.56793858 131.35770562 30.57282129 127.31438822 30.57761353 C117.77571681 30.58870925 108.23708478 30.58914568 98.69841003 30.58309937 C88.85826035 30.57705787 79.0182536 30.58937492 69.1781283 30.61066943 C60.72873748 30.62828195 52.27939216 30.63428736 43.82998365 30.63103169 C38.78395574 30.62921822 33.7380298 30.63186151 28.69201851 30.64574623 C23.94695301 30.65831432 19.20211046 30.65639011 14.45704842 30.64333534 C12.71638921 30.64096783 10.97571436 30.64371049 9.23507309 30.65195847 C6.85716042 30.66241298 4.4799976 30.65433614 2.10211182 30.64164734 C1.41484687 30.64902162 0.72758193 30.65639591 0.01949078 30.66399366 C-5.19517908 30.60553479 -9.25192818 29.31353926 -13.13972473 25.76742554 C-16.55089768 21.38652115 -17.96526245 18.10388785 -17.91316223 12.46664429 C-17.12398995 8.31427049 -14.4669043 5.17097785 -11.49519348 2.26742554 C-7.85528313 -0.14872084 -4.22049624 -0.01848144 0 0 Z " fill="#103562" transform="translate(370.4951934814453,556.7325744628906)"/>
<path d="M0 0 C3.71594293 1.4955335 3.71594293 1.4955335 4.94140625 3.671875 C5.14636719 4.35765625 5.35132813 5.0434375 5.5625 5.75 C5.80484375 6.55824219 6.0471875 7.36648438 6.296875 8.19921875 C7.07631765 11.30399865 7.69508168 14.4215638 8.3125 17.5625 C11.05483272 30.74569325 15.23875948 45.15917298 27 53 C33.30351108 56.50512337 39.44658695 58.37283958 46.4375 60.0625 C57.81983628 62.86900149 57.81983628 62.86900149 63.16015625 64.43359375 C63.87953369 64.63911865 64.59891113 64.84464355 65.34008789 65.05639648 C67 66 67 66 67.73999023 68.09790039 C67.82579346 68.72559326 67.91159668 69.35328613 68 70 C64.46654249 72.30982605 61.34122305 73.61984374 57.24609375 74.61328125 C56.14330078 74.89236328 55.04050781 75.17144531 53.90429688 75.45898438 C51.62159544 76.02097904 49.33776035 76.57839204 47.05273438 77.13085938 C35.69273399 80.02189715 24.60468249 83.76195667 18 94 C13.5263132 102.2529087 11.13828704 111.02053647 8.8125 120.0625 C8.13962868 122.65985301 7.45697403 125.25406144 6.76953125 127.84765625 C6.47667236 128.98211182 6.18381348 130.11656738 5.88208008 131.28540039 C5 134 5 134 3 136 C1.0625 136 1.0625 136 -1 135 C-4.08284323 129.93242393 -5.14151825 124.65553239 -6.375 118.9375 C-10.68829001 99.193603 -10.68829001 99.193603 -23.484375 84.29296875 C-32.08376815 79.60131089 -41.56809679 77.38502821 -51 75 C-53.16808038 74.44297381 -55.33502632 73.88148126 -57.5 73.3125 C-58.75296875 72.99732422 -58.75296875 72.99732422 -60.03125 72.67578125 C-62 72 -62 72 -64 70 C-63.8125 68 -63.8125 68 -63 66 C-60.05374893 64.03583262 -58.26766157 63.4436431 -54.87890625 62.66796875 C-53.86634766 62.42957275 -52.85378906 62.19117676 -51.81054688 61.94555664 C-50.20276367 61.5703186 -50.20276367 61.5703186 -48.5625 61.1875 C-28.823398 56.69562158 -28.823398 56.69562158 -14.3203125 43.41015625 C-8.43168114 32.4971454 -5.96402469 20.35020574 -4.1262207 8.19042969 C-3.52793148 4.56482457 -3.026921 2.24713248 0 0 Z " fill="#103562" transform="translate(628,576)"/>
<path d="M0 0 C5.47530208 4.42971051 9.55635683 10.60767059 11.6875 17.3125 C11.98828125 20.90625 11.98828125 20.90625 12 24.8125 C12.01675781 26.1015625 12.03351562 27.390625 12.05078125 28.71875 C11.66842612 32.50118782 10.99230606 34.33298491 8.6875 37.3125 C5.44550161 39.47383226 4.49586659 39.5737603 0.74462891 39.61889648 C-0.26006439 39.63488388 -1.26475769 39.65087128 -2.29989624 39.66734314 C-3.38428986 39.67270584 -4.46868347 39.67806854 -5.5859375 39.68359375 C-6.70183258 39.69262222 -7.81772766 39.7016507 -8.96743774 39.71095276 C-11.32950146 39.7254687 -13.6916055 39.73434532 -16.05371094 39.73803711 C-19.66670532 39.74993154 -23.27799129 39.79910543 -26.890625 39.84960938 C-29.18488749 39.85907358 -31.47916048 39.86630862 -33.7734375 39.87109375 C-35.39395523 39.90039223 -35.39395523 39.90039223 -37.04721069 39.93028259 C-44.56197975 39.8851067 -44.56197975 39.8851067 -48.47119141 36.90258789 C-52.69777304 30.95724123 -52.22248472 23.37595818 -51.3125 16.3125 C-48.54696294 7.6042249 -42.2405376 0.70840178 -34.35546875 -3.80859375 C-22.63668746 -9.14459656 -10.48060529 -7.18041469 0 0 Z " fill="#103563" transform="translate(532.3125,169.6875)"/>
<path d="M0 0 C0.495 0.99 0.495 0.99 1 2 C-0.34781211 5.80203716 -2.21781562 9.3848436 -4 13 C-4.43570313 13.89589844 -4.87140625 14.79179688 -5.3203125 15.71484375 C-14.78408114 34.12863358 -31.47890388 54.05921514 -51 62 C-53.36426233 62.52438706 -55.57807253 62.79817271 -58 63 C-53.91794606 57.31080847 -49.5191775 52.12543316 -44.6875 47.0625 C-44.00179932 46.33812744 -43.31609863 45.61375488 -42.60961914 44.86743164 C-36.79967112 38.76280948 -30.85980137 32.79104535 -24.84838867 26.88500977 C-20.33902952 22.43375103 -16.12865814 17.8043148 -12 13 C-10.42123129 11.22509592 -8.83862992 9.45358327 -7.25 7.6875 C-6.14398437 6.45580078 -6.14398437 6.45580078 -5.015625 5.19921875 C-3.38295973 3.41784172 -1.72714925 1.68888962 0 0 Z " fill="#4E8DCB" transform="translate(722,753)"/>
<path d="M0 0 C3.06277267 0.14126626 6.12513542 0.28784396 9.1875 0.4375 C10.05181641 0.47681641 10.91613281 0.51613281 11.80664062 0.55664062 C15.95914122 0.76347016 19.94537862 1.00103531 24 2 C24 2.33 24 2.66 24 3 C15.09 3 6.18 3 -3 3 C-2.01 2.67 -1.02 2.34 0 2 C0 1.34 0 0.68 0 0 Z " fill="#052653" transform="translate(502,129)"/>
<path d="M0 0 C0.33 0.66 0.66 1.32 1 2 C0.01 3.485 0.01 3.485 -1 5 C-1.66 5 -2.32 5 -3 5 C-3.33 8.96 -3.66 12.92 -4 17 C-6 15 -6 15 -6.375 11.75 C-5.8557351 6.557351 -3.62661574 3.62661574 0 0 Z " fill="#0B2B59" transform="translate(359,477)"/>
<path d="M0 0 C0.33 0.66 0.66 1.32 1 2 C0.22265625 3.9453125 0.22265625 3.9453125 -0.9375 6.125 C-1.31777344 6.84945312 -1.69804688 7.57390625 -2.08984375 8.3203125 C-2.54037109 9.15175781 -2.54037109 9.15175781 -3 10 C-3.33 9.01 -3.66 8.02 -4 7 C-5.32 7.99 -6.64 8.98 -8 10 C-6.34908222 5.70761377 -3.26245434 3.1206085 0 0 Z " fill="#5997D3" transform="translate(722,753)"/>
</svg>
